# xmcd CD database file
#
# Track frame offsets:
#	150
#	16885
#	31502
#	44405
#	59515
#	86970
#	99475
#	111362
#	131620
#	146337
#	163585
#	170790
#	179132
#	189292
#
# Disc length: 2720 seconds
#
# Revision: 0
# Processed by: cddbd v1.4PL0 Copyright (c) Steve Scherf et al.
# Submitted via: CDex 1.50beta10
#
DISCID=c10a9e0e
DTITLE=The Everly Brothers - album(blau)
DYEAR=1995
DGENRE=Blues
TTITLE0=The Price Of Love
TTITLE1=Be Bop A Lula
TTITLE2=Bye Bye Love
TTITLE3=All I have to do is dream
TTITLE4=Medley.Devoted to You_Ebony Eyes_Love Hurts
TTITLE5=Till I kissed ya
TTITLE6=Claudette
TTITLE7=Blues stay away from me
TTITLE8=So sad
TTITLE9=Let it be
TTITLE10=For the love of Barbara Allen
TTITLE11=Lightning Express
TTITLE12=Put my little shoes away
TTITLE13=Down in the Willow Garden
EXTD=YEAR: 1995
EXTT0=
EXTT1=
EXTT2=
EXTT3=
EXTT4=
EXTT5=
EXTT6=
EXTT7=
EXTT8=
EXTT9=
EXTT10=
EXTT11=
EXTT12=
EXTT13=
PLAYORDER=
